<?xml version="1.0" encoding="UTF-8" standalone="no"?>
<!DOCTYPE svg PUBLIC "-//W3C//DTD SVG 1.1//EN" "http://www.w3.org/Graphics/SVG/1.1/DTD/svg11.dtd">
<svg width="100%" height="100%" viewBox="0 0 317 143" version="1.1" xmlns="http://www.w3.org/2000/svg" xmlns:xlink="http://www.w3.org/1999/xlink" xml:space="preserve" xmlns:serif="http://www.serif.com/" style="fill-rule:evenodd;clip-rule:evenodd;stroke-linejoin:round;stroke-miterlimit:2;">
    <g transform="matrix(1,0,0,1,-334.539,-526.647)">
        <g>
            <g transform="matrix(1,0,0,1,228.344,312.527)">
                <g transform="matrix(200,0,0,200,106.195,356.721)">
                    <path d="M0.209,-0.59L0.356,-0.59C0.371,-0.59 0.385,-0.596 0.398,-0.608C0.411,-0.62 0.417,-0.634 0.417,-0.651C0.417,-0.666 0.411,-0.681 0.399,-0.695C0.387,-0.707 0.373,-0.713 0.356,-0.713L0.209,-0.713C0.171,-0.713 0.138,-0.706 0.111,-0.692C0.1,-0.685 0.088,-0.678 0.077,-0.669C0.066,-0.66 0.056,-0.65 0.047,-0.639C0.032,-0.618 0.02,-0.595 0.011,-0.572C0.008,-0.561 0.006,-0.551 0.005,-0.54C0.003,-0.529 0.001,-0.517 0,-0.504L0,-0.209C0,-0.171 0.007,-0.138 0.021,-0.111C0.028,-0.1 0.035,-0.088 0.045,-0.077C0.054,-0.066 0.063,-0.056 0.074,-0.047C0.095,-0.032 0.118,-0.02 0.141,-0.011C0.152,-0.008 0.162,-0.006 0.173,-0.005C0.184,-0.003 0.196,-0.001 0.209,-0L0.356,-0C0.371,-0 0.385,-0.006 0.398,-0.018C0.411,-0.03 0.417,-0.045 0.417,-0.062C0.417,-0.077 0.411,-0.091 0.399,-0.104C0.387,-0.117 0.373,-0.123 0.356,-0.123L0.209,-0.123L0.185,-0.125C0.18,-0.126 0.176,-0.127 0.171,-0.129C0.166,-0.13 0.161,-0.133 0.156,-0.137C0.147,-0.143 0.139,-0.151 0.132,-0.162C0.126,-0.173 0.123,-0.189 0.123,-0.209L0.123,-0.504L0.125,-0.528C0.126,-0.533 0.127,-0.537 0.129,-0.542C0.13,-0.547 0.133,-0.552 0.137,-0.557C0.144,-0.566 0.152,-0.574 0.162,-0.579C0.171,-0.584 0.187,-0.588 0.209,-0.59Z" style="fill-rule:nonzero;"/>
                </g>
                <g transform="matrix(200,0,0,200,197.595,356.721)">
                    <path d="M0.209,-0.713L0.062,-0.713C0.047,-0.713 0.032,-0.707 0.018,-0.695C0.006,-0.683 0,-0.668 0,-0.651L0,-0.209C0,-0.194 0.006,-0.179 0.018,-0.165C0.03,-0.153 0.045,-0.147 0.062,-0.147C0.077,-0.147 0.091,-0.153 0.104,-0.165C0.117,-0.177 0.123,-0.192 0.123,-0.209L0.123,-0.59L0.209,-0.59C0.218,-0.59 0.225,-0.589 0.231,-0.588C0.237,-0.586 0.243,-0.584 0.248,-0.583C0.253,-0.581 0.257,-0.578 0.261,-0.575C0.271,-0.568 0.279,-0.56 0.285,-0.549C0.291,-0.538 0.294,-0.523 0.294,-0.504C0.294,-0.486 0.291,-0.471 0.284,-0.458C0.281,-0.453 0.278,-0.448 0.274,-0.444C0.273,-0.443 0.268,-0.439 0.261,-0.432C0.254,-0.427 0.245,-0.423 0.233,-0.42L0.209,-0.417C0.191,-0.417 0.176,-0.411 0.164,-0.398C0.155,-0.389 0.149,-0.375 0.147,-0.356C0.147,-0.343 0.151,-0.331 0.16,-0.32C0.169,-0.308 0.181,-0.3 0.197,-0.296L0.203,-0.294L0.209,-0.294C0.218,-0.294 0.226,-0.293 0.233,-0.291C0.242,-0.291 0.252,-0.288 0.261,-0.282C0.27,-0.275 0.278,-0.266 0.285,-0.254C0.291,-0.242 0.294,-0.227 0.294,-0.209C0.294,-0.189 0.291,-0.174 0.285,-0.164C0.279,-0.154 0.271,-0.145 0.261,-0.137C0.254,-0.132 0.245,-0.128 0.233,-0.125C0.222,-0.125 0.214,-0.124 0.209,-0.123L0.062,-0.123C0.047,-0.123 0.032,-0.117 0.018,-0.105C0.006,-0.093 0,-0.079 0,-0.062C0,-0.047 0.006,-0.032 0.018,-0.018C0.03,-0.006 0.045,-0 0.062,-0L0.209,-0C0.222,-0 0.233,-0.001 0.242,-0.002C0.251,-0.003 0.263,-0.006 0.276,-0.011C0.301,-0.018 0.323,-0.03 0.343,-0.046C0.363,-0.061 0.38,-0.083 0.395,-0.111C0.41,-0.138 0.417,-0.171 0.417,-0.209C0.417,-0.228 0.416,-0.243 0.414,-0.256C0.412,-0.269 0.408,-0.281 0.402,-0.294C0.393,-0.317 0.38,-0.338 0.362,-0.356C0.379,-0.373 0.393,-0.395 0.403,-0.42C0.412,-0.444 0.417,-0.473 0.417,-0.504C0.417,-0.526 0.416,-0.544 0.413,-0.558C0.41,-0.571 0.404,-0.585 0.396,-0.6C0.383,-0.627 0.366,-0.648 0.345,-0.665C0.324,-0.682 0.301,-0.694 0.276,-0.701C0.263,-0.705 0.253,-0.708 0.244,-0.709C0.235,-0.71 0.223,-0.712 0.209,-0.713Z" style="fill-rule:nonzero;"/>
                </g>
            </g>
            <g transform="matrix(1,0,0,1,435.844,339.265)">
                <g transform="matrix(125,0,0,125,106.195,303.246)">
                    <path d="M0.411,-0.531C0.404,-0.545 0.392,-0.555 0.375,-0.561C0.369,-0.564 0.362,-0.565 0.354,-0.565C0.346,-0.565 0.338,-0.563 0.329,-0.558L0.035,-0.411C0.012,-0.399 0,-0.381 0,-0.356C0,-0.332 0.012,-0.314 0.035,-0.302L0.329,-0.153C0.337,-0.149 0.345,-0.147 0.354,-0.147C0.361,-0.147 0.368,-0.148 0.375,-0.15C0.39,-0.156 0.402,-0.167 0.411,-0.182C0.415,-0.189 0.417,-0.197 0.417,-0.207C0.417,-0.214 0.416,-0.221 0.414,-0.228C0.41,-0.243 0.4,-0.255 0.383,-0.264L0.2,-0.356L0.383,-0.449C0.398,-0.456 0.408,-0.468 0.414,-0.485C0.417,-0.491 0.418,-0.498 0.418,-0.506C0.418,-0.514 0.416,-0.522 0.411,-0.531Z" style="fill-rule:nonzero;"/>
                </g>
                <g transform="matrix(125,0,0,125,163.57,303.246)">
                    <path d="M0.209,-0.713C0.171,-0.713 0.138,-0.706 0.111,-0.692C0.1,-0.685 0.088,-0.678 0.077,-0.669C0.066,-0.66 0.056,-0.65 0.047,-0.639C0.032,-0.618 0.02,-0.595 0.011,-0.572C0.008,-0.561 0.006,-0.551 0.005,-0.54C0.003,-0.529 0.001,-0.517 0,-0.504C0,-0.489 0.006,-0.475 0.018,-0.462C0.03,-0.449 0.045,-0.443 0.062,-0.443C0.077,-0.443 0.091,-0.449 0.104,-0.461C0.117,-0.473 0.123,-0.487 0.123,-0.504L0.125,-0.528C0.126,-0.533 0.127,-0.537 0.129,-0.542C0.13,-0.547 0.133,-0.552 0.137,-0.557C0.144,-0.566 0.152,-0.574 0.162,-0.579C0.171,-0.584 0.187,-0.588 0.209,-0.59C0.228,-0.59 0.243,-0.586 0.254,-0.579C0.267,-0.573 0.276,-0.566 0.282,-0.557C0.287,-0.548 0.29,-0.539 0.291,-0.528L0.294,-0.504C0.294,-0.495 0.293,-0.487 0.291,-0.479C0.291,-0.47 0.288,-0.462 0.283,-0.453C0.277,-0.444 0.267,-0.435 0.254,-0.426C0.243,-0.42 0.228,-0.417 0.209,-0.417C0.194,-0.417 0.179,-0.411 0.165,-0.399C0.153,-0.387 0.147,-0.373 0.147,-0.356C0.147,-0.341 0.153,-0.326 0.165,-0.312C0.177,-0.3 0.192,-0.294 0.209,-0.294C0.218,-0.294 0.226,-0.293 0.233,-0.291C0.242,-0.291 0.252,-0.288 0.261,-0.282C0.27,-0.275 0.278,-0.266 0.285,-0.254C0.291,-0.242 0.294,-0.227 0.294,-0.209C0.294,-0.189 0.291,-0.174 0.285,-0.164C0.279,-0.154 0.271,-0.145 0.261,-0.137C0.254,-0.132 0.245,-0.128 0.233,-0.125C0.222,-0.125 0.214,-0.124 0.209,-0.123L0.185,-0.125C0.18,-0.126 0.176,-0.127 0.171,-0.129C0.166,-0.13 0.161,-0.133 0.156,-0.137C0.147,-0.143 0.139,-0.151 0.132,-0.162C0.126,-0.173 0.123,-0.189 0.123,-0.209C0.123,-0.224 0.117,-0.238 0.105,-0.251C0.093,-0.264 0.079,-0.27 0.062,-0.27C0.047,-0.27 0.032,-0.264 0.018,-0.252C0.006,-0.24 0,-0.226 0,-0.209C0,-0.171 0.007,-0.138 0.021,-0.111C0.028,-0.1 0.035,-0.088 0.045,-0.077C0.054,-0.066 0.063,-0.056 0.074,-0.047C0.095,-0.032 0.118,-0.02 0.141,-0.011C0.152,-0.008 0.162,-0.006 0.173,-0.005C0.184,-0.003 0.196,-0.001 0.209,-0C0.222,-0 0.233,-0.001 0.242,-0.002C0.251,-0.003 0.263,-0.006 0.276,-0.011C0.301,-0.018 0.323,-0.03 0.343,-0.046C0.363,-0.061 0.38,-0.083 0.395,-0.111C0.41,-0.138 0.417,-0.171 0.417,-0.209C0.417,-0.228 0.416,-0.243 0.414,-0.256C0.412,-0.269 0.408,-0.281 0.402,-0.294C0.393,-0.317 0.38,-0.338 0.362,-0.356C0.381,-0.377 0.395,-0.401 0.404,-0.428C0.413,-0.455 0.417,-0.48 0.417,-0.504C0.417,-0.527 0.414,-0.55 0.408,-0.573C0.401,-0.596 0.389,-0.618 0.371,-0.639C0.356,-0.66 0.335,-0.677 0.306,-0.692C0.294,-0.699 0.28,-0.704 0.263,-0.708C0.246,-0.711 0.228,-0.713 0.209,-0.713Z" style="fill-rule:nonzero;"/>
                </g>
            </g>
        </g>
    </g>
</svg>
