<?xml version="1.0" encoding="UTF-8" standalone="no"?>
<!DOCTYPE svg PUBLIC "-//W3C//DTD SVG 1.1//EN" "http://www.w3.org/Graphics/SVG/1.1/DTD/svg11.dtd">
<svg width="100%" height="100%" viewBox="0 0 726 90" version="1.1" xmlns="http://www.w3.org/2000/svg" xmlns:xlink="http://www.w3.org/1999/xlink" xml:space="preserve" xmlns:serif="http://www.serif.com/" style="fill-rule:evenodd;clip-rule:evenodd;stroke-linejoin:round;stroke-miterlimit:2;">
    <g transform="matrix(1,0,0,1,-114.875,-291.247)">
        <g transform="matrix(1,0,0,1,-119.464,77.1259)">
            <g transform="matrix(125,0,0,125,234.339,303.246)">
                <path d="M0.209,-0.294L0.356,-0.294C0.371,-0.294 0.385,-0.3 0.398,-0.312C0.411,-0.324 0.417,-0.339 0.417,-0.356C0.417,-0.371 0.411,-0.385 0.399,-0.398C0.387,-0.411 0.373,-0.417 0.356,-0.417L0.209,-0.417C0.186,-0.417 0.164,-0.414 0.141,-0.408C0.118,-0.401 0.095,-0.389 0.074,-0.371C0.053,-0.356 0.036,-0.335 0.021,-0.306C0.014,-0.294 0.009,-0.28 0.006,-0.263C0.002,-0.246 0,-0.228 0,-0.209C0,-0.171 0.007,-0.138 0.021,-0.111C0.028,-0.1 0.035,-0.088 0.045,-0.077C0.054,-0.066 0.063,-0.056 0.074,-0.047C0.095,-0.032 0.118,-0.02 0.141,-0.011C0.152,-0.008 0.162,-0.006 0.173,-0.005C0.184,-0.003 0.196,-0.001 0.209,-0L0.356,-0C0.371,-0 0.385,-0.006 0.398,-0.018C0.411,-0.03 0.417,-0.045 0.417,-0.062C0.417,-0.077 0.411,-0.091 0.399,-0.104C0.387,-0.117 0.373,-0.123 0.356,-0.123L0.209,-0.123L0.185,-0.125C0.18,-0.126 0.176,-0.127 0.171,-0.129C0.166,-0.13 0.161,-0.133 0.156,-0.137C0.147,-0.143 0.139,-0.151 0.132,-0.162C0.126,-0.173 0.123,-0.189 0.123,-0.209C0.123,-0.227 0.126,-0.242 0.132,-0.254C0.138,-0.266 0.146,-0.275 0.155,-0.281C0.164,-0.287 0.174,-0.29 0.185,-0.291L0.209,-0.294Z" style="fill-rule:nonzero;"/>
            </g>
            <g transform="matrix(125,0,0,125,291.464,303.246)">
                <path d="M0.356,-0.417L0.209,-0.417C0.186,-0.417 0.164,-0.414 0.141,-0.408C0.118,-0.401 0.095,-0.389 0.074,-0.371C0.053,-0.356 0.036,-0.335 0.021,-0.306C0.014,-0.294 0.009,-0.28 0.006,-0.263C0.002,-0.246 0,-0.228 0,-0.209C0,-0.171 0.007,-0.138 0.021,-0.111C0.028,-0.1 0.035,-0.088 0.045,-0.077C0.054,-0.066 0.063,-0.056 0.074,-0.047C0.095,-0.032 0.118,-0.02 0.141,-0.011C0.152,-0.008 0.162,-0.006 0.173,-0.005C0.184,-0.003 0.196,-0.001 0.209,-0L0.356,-0C0.371,-0 0.385,-0.006 0.398,-0.018C0.411,-0.03 0.417,-0.045 0.417,-0.062C0.417,-0.077 0.411,-0.091 0.399,-0.104C0.387,-0.117 0.373,-0.123 0.356,-0.123L0.209,-0.123L0.185,-0.125C0.18,-0.126 0.176,-0.127 0.171,-0.129C0.166,-0.13 0.161,-0.133 0.156,-0.137C0.147,-0.143 0.139,-0.151 0.132,-0.162C0.126,-0.173 0.123,-0.189 0.123,-0.209C0.123,-0.227 0.126,-0.242 0.132,-0.254C0.138,-0.266 0.146,-0.275 0.155,-0.281C0.164,-0.287 0.174,-0.29 0.185,-0.291L0.209,-0.294L0.356,-0.294C0.371,-0.294 0.385,-0.3 0.398,-0.312C0.411,-0.324 0.417,-0.339 0.417,-0.356C0.417,-0.371 0.411,-0.385 0.399,-0.398C0.387,-0.411 0.373,-0.417 0.356,-0.417ZM0.356,-0.27L0.209,-0.27C0.194,-0.27 0.179,-0.264 0.165,-0.252C0.153,-0.24 0.147,-0.226 0.147,-0.209C0.147,-0.194 0.153,-0.179 0.165,-0.165C0.177,-0.153 0.192,-0.147 0.209,-0.147L0.356,-0.147C0.371,-0.147 0.385,-0.153 0.398,-0.165C0.411,-0.177 0.417,-0.192 0.417,-0.209C0.417,-0.224 0.411,-0.238 0.399,-0.251C0.387,-0.264 0.373,-0.27 0.356,-0.27Z" style="fill-rule:nonzero;"/>
            </g>
            <g transform="matrix(125,0,0,125,348.589,303.246)">
                <path d="M0.062,-0.713C0.047,-0.713 0.032,-0.707 0.018,-0.695C0.006,-0.683 0,-0.668 0,-0.651L0,-0.062C0,-0.047 0.006,-0.032 0.018,-0.018C0.03,-0.006 0.045,-0 0.062,-0C0.077,-0 0.091,-0.006 0.104,-0.018C0.117,-0.03 0.123,-0.045 0.123,-0.062L0.123,-0.651C0.123,-0.666 0.117,-0.681 0.105,-0.695C0.093,-0.707 0.079,-0.713 0.062,-0.713Z" style="fill-rule:nonzero;"/>
            </g>
            <g transform="matrix(125,0,0,125,368.964,303.246)">
                <path d="M0.356,-0.417L0.209,-0.417C0.186,-0.417 0.164,-0.414 0.141,-0.408C0.118,-0.401 0.095,-0.389 0.074,-0.371C0.053,-0.356 0.036,-0.335 0.021,-0.306C0.014,-0.294 0.009,-0.28 0.006,-0.263C0.002,-0.246 0,-0.228 0,-0.209C0,-0.171 0.007,-0.138 0.021,-0.111C0.028,-0.1 0.035,-0.088 0.045,-0.077C0.054,-0.066 0.063,-0.056 0.074,-0.047C0.095,-0.032 0.118,-0.02 0.141,-0.011C0.152,-0.008 0.162,-0.006 0.173,-0.005C0.184,-0.003 0.196,-0.001 0.209,-0L0.356,-0C0.371,-0 0.385,-0.006 0.398,-0.018C0.411,-0.03 0.417,-0.045 0.417,-0.062C0.417,-0.077 0.411,-0.091 0.399,-0.104C0.387,-0.117 0.373,-0.123 0.356,-0.123L0.209,-0.123L0.185,-0.125C0.18,-0.126 0.176,-0.127 0.171,-0.129C0.166,-0.13 0.161,-0.133 0.156,-0.137C0.147,-0.143 0.139,-0.151 0.132,-0.162C0.126,-0.173 0.123,-0.189 0.123,-0.209C0.123,-0.227 0.126,-0.242 0.132,-0.254C0.138,-0.266 0.146,-0.275 0.155,-0.281C0.164,-0.287 0.174,-0.29 0.185,-0.291L0.209,-0.294L0.356,-0.294C0.371,-0.294 0.385,-0.3 0.398,-0.312C0.411,-0.324 0.417,-0.339 0.417,-0.356C0.417,-0.371 0.411,-0.385 0.399,-0.398C0.387,-0.411 0.373,-0.417 0.356,-0.417ZM0.356,-0.27L0.209,-0.27C0.194,-0.27 0.179,-0.264 0.165,-0.252C0.153,-0.24 0.147,-0.226 0.147,-0.209C0.147,-0.194 0.153,-0.179 0.165,-0.165C0.177,-0.153 0.192,-0.147 0.209,-0.147L0.356,-0.147C0.371,-0.147 0.385,-0.153 0.398,-0.165C0.411,-0.177 0.417,-0.192 0.417,-0.209C0.417,-0.224 0.411,-0.238 0.399,-0.251C0.387,-0.264 0.373,-0.27 0.356,-0.27Z" style="fill-rule:nonzero;"/>
            </g>
            <g transform="matrix(125,0,0,125,426.089,303.246)">
                <path d="M0.356,-0.417L0.209,-0.417C0.186,-0.417 0.164,-0.414 0.141,-0.408C0.118,-0.401 0.095,-0.389 0.074,-0.371C0.053,-0.356 0.036,-0.335 0.021,-0.306C0.014,-0.294 0.009,-0.28 0.006,-0.263C0.002,-0.246 0,-0.228 0,-0.209C0,-0.194 0.006,-0.179 0.018,-0.165C0.03,-0.153 0.045,-0.147 0.062,-0.147C0.077,-0.147 0.091,-0.153 0.104,-0.165C0.117,-0.177 0.123,-0.192 0.123,-0.209C0.123,-0.227 0.126,-0.242 0.132,-0.254C0.138,-0.266 0.146,-0.275 0.155,-0.281C0.164,-0.287 0.174,-0.29 0.185,-0.291L0.209,-0.294L0.356,-0.294C0.371,-0.294 0.385,-0.3 0.398,-0.312C0.411,-0.324 0.417,-0.339 0.417,-0.356C0.417,-0.371 0.411,-0.385 0.399,-0.398C0.387,-0.411 0.373,-0.417 0.356,-0.417ZM0.27,-0.209C0.27,-0.224 0.264,-0.238 0.252,-0.251C0.24,-0.264 0.226,-0.27 0.209,-0.27C0.194,-0.27 0.179,-0.264 0.165,-0.252C0.153,-0.24 0.147,-0.226 0.147,-0.209C0.147,-0.194 0.153,-0.179 0.165,-0.165C0.177,-0.153 0.192,-0.147 0.209,-0.147C0.224,-0.147 0.238,-0.153 0.251,-0.165C0.264,-0.177 0.27,-0.192 0.27,-0.209ZM0.356,-0.27C0.341,-0.27 0.326,-0.264 0.312,-0.252C0.3,-0.24 0.294,-0.226 0.294,-0.209C0.294,-0.2 0.293,-0.192 0.291,-0.185C0.291,-0.176 0.288,-0.168 0.283,-0.159C0.277,-0.15 0.267,-0.141 0.254,-0.132C0.243,-0.126 0.228,-0.123 0.209,-0.123L0.062,-0.123C0.047,-0.123 0.032,-0.117 0.018,-0.105C0.006,-0.093 0,-0.079 0,-0.062C0,-0.047 0.006,-0.032 0.018,-0.018C0.03,-0.006 0.045,-0 0.062,-0L0.209,-0C0.248,-0 0.281,-0.007 0.308,-0.021C0.334,-0.035 0.355,-0.052 0.371,-0.073C0.387,-0.093 0.399,-0.115 0.407,-0.14C0.41,-0.15 0.412,-0.162 0.414,-0.175C0.416,-0.188 0.417,-0.199 0.417,-0.209C0.417,-0.224 0.411,-0.238 0.399,-0.251C0.387,-0.264 0.373,-0.27 0.356,-0.27Z" style="fill-rule:nonzero;"/>
            </g>
            <g transform="matrix(125,0,0,125,483.214,303.246)">
                <path d="M0.209,-0.123C0.19,-0.123 0.175,-0.126 0.164,-0.132C0.153,-0.137 0.144,-0.145 0.137,-0.156C0.132,-0.163 0.128,-0.172 0.125,-0.185C0.125,-0.196 0.124,-0.204 0.123,-0.209L0.123,-0.504C0.123,-0.519 0.117,-0.534 0.105,-0.548C0.093,-0.56 0.079,-0.566 0.062,-0.566C0.047,-0.566 0.032,-0.56 0.018,-0.548C0.006,-0.536 0,-0.521 0,-0.504L0,-0.209C0,-0.192 0.001,-0.18 0.002,-0.173C0.003,-0.165 0.006,-0.154 0.011,-0.14C0.018,-0.115 0.03,-0.093 0.047,-0.073C0.063,-0.053 0.084,-0.036 0.111,-0.021C0.124,-0.015 0.139,-0.01 0.156,-0.006C0.173,-0.002 0.19,-0 0.209,-0C0.224,-0 0.238,-0.006 0.251,-0.018C0.264,-0.03 0.27,-0.045 0.27,-0.062C0.27,-0.077 0.264,-0.091 0.252,-0.104C0.24,-0.117 0.226,-0.123 0.209,-0.123ZM0.209,-0.417C0.194,-0.417 0.179,-0.411 0.165,-0.399C0.153,-0.387 0.147,-0.373 0.147,-0.356C0.147,-0.341 0.153,-0.326 0.165,-0.312C0.177,-0.3 0.192,-0.294 0.209,-0.294C0.224,-0.294 0.238,-0.3 0.251,-0.312C0.264,-0.324 0.27,-0.339 0.27,-0.356C0.27,-0.371 0.264,-0.385 0.252,-0.398C0.24,-0.411 0.226,-0.417 0.209,-0.417Z" style="fill-rule:nonzero;"/>
            </g>
            <g transform="matrix(125,0,0,125,521.964,303.246)">
                <path d="M0.062,-0.417C0.047,-0.417 0.032,-0.411 0.018,-0.399C0.006,-0.387 0,-0.373 0,-0.356L0,-0.062C0,-0.047 0.006,-0.032 0.018,-0.018C0.03,-0.006 0.045,-0 0.062,-0C0.077,-0 0.091,-0.006 0.104,-0.018C0.117,-0.03 0.123,-0.045 0.123,-0.062L0.123,-0.356C0.123,-0.371 0.117,-0.385 0.105,-0.398C0.093,-0.411 0.079,-0.417 0.062,-0.417ZM0.062,-0.566C0.047,-0.566 0.032,-0.56 0.018,-0.548C0.006,-0.536 0,-0.521 0,-0.504C0,-0.489 0.006,-0.475 0.018,-0.462C0.03,-0.449 0.045,-0.443 0.062,-0.443C0.077,-0.443 0.091,-0.449 0.104,-0.461C0.117,-0.473 0.123,-0.487 0.123,-0.504C0.123,-0.519 0.117,-0.534 0.105,-0.548C0.093,-0.56 0.079,-0.566 0.062,-0.566Z" style="fill-rule:nonzero;"/>
            </g>
            <g transform="matrix(125,0,0,125,542.339,303.246)">
                <path d="M0.209,-0.417C0.171,-0.417 0.139,-0.41 0.113,-0.397C0.087,-0.384 0.065,-0.366 0.047,-0.344C0.032,-0.323 0.02,-0.301 0.011,-0.276C0.008,-0.265 0.006,-0.254 0.005,-0.245C0.003,-0.235 0.001,-0.223 0,-0.209C0,-0.192 0.001,-0.18 0.002,-0.173C0.003,-0.165 0.006,-0.154 0.011,-0.14C0.018,-0.115 0.03,-0.093 0.047,-0.073C0.063,-0.053 0.084,-0.036 0.111,-0.021C0.124,-0.015 0.139,-0.01 0.156,-0.006C0.173,-0.002 0.19,-0 0.209,-0C0.224,-0 0.238,-0.006 0.251,-0.018C0.264,-0.03 0.27,-0.045 0.27,-0.062C0.27,-0.077 0.264,-0.091 0.252,-0.104C0.24,-0.117 0.226,-0.123 0.209,-0.123C0.19,-0.123 0.175,-0.126 0.164,-0.132C0.153,-0.137 0.144,-0.145 0.137,-0.156C0.132,-0.163 0.128,-0.172 0.125,-0.185C0.125,-0.196 0.124,-0.204 0.123,-0.209L0.125,-0.233C0.126,-0.238 0.127,-0.243 0.129,-0.248C0.13,-0.252 0.133,-0.257 0.137,-0.262C0.141,-0.267 0.145,-0.272 0.148,-0.275C0.151,-0.278 0.155,-0.281 0.162,-0.284C0.174,-0.291 0.19,-0.294 0.209,-0.294C0.228,-0.294 0.243,-0.291 0.255,-0.285C0.266,-0.278 0.275,-0.271 0.281,-0.262C0.286,-0.253 0.29,-0.243 0.291,-0.233L0.294,-0.209L0.294,-0.062C0.294,-0.047 0.3,-0.032 0.312,-0.018C0.324,-0.006 0.339,-0 0.356,-0C0.371,-0 0.385,-0.006 0.398,-0.018C0.411,-0.03 0.417,-0.045 0.417,-0.062L0.417,-0.209C0.417,-0.231 0.414,-0.253 0.407,-0.276C0.401,-0.301 0.389,-0.323 0.371,-0.344C0.357,-0.363 0.336,-0.38 0.309,-0.395C0.282,-0.41 0.248,-0.417 0.209,-0.417Z" style="fill-rule:nonzero;"/>
            </g>
            <g transform="matrix(125,0,0,125,599.464,303.246)">
                <path d="M0.062,-0.713C0.047,-0.713 0.032,-0.707 0.018,-0.695C0.006,-0.683 0,-0.668 0,-0.651L0,-0.062C0,-0.047 0.006,-0.032 0.018,-0.018C0.03,-0.006 0.045,-0 0.062,-0C0.077,-0 0.091,-0.006 0.104,-0.018C0.117,-0.03 0.123,-0.045 0.123,-0.062L0.123,-0.651C0.123,-0.666 0.117,-0.681 0.105,-0.695C0.093,-0.707 0.079,-0.713 0.062,-0.713Z" style="fill-rule:nonzero;"/>
            </g>
            <g transform="matrix(125,0,0,125,619.839,303.246)">
                <path d="M0.209,-0.417C0.194,-0.417 0.179,-0.411 0.165,-0.399C0.153,-0.387 0.147,-0.373 0.147,-0.356C0.147,-0.341 0.153,-0.326 0.165,-0.312C0.177,-0.3 0.192,-0.294 0.209,-0.294C0.228,-0.294 0.243,-0.291 0.255,-0.285C0.266,-0.278 0.275,-0.271 0.281,-0.262C0.286,-0.253 0.29,-0.243 0.291,-0.233L0.294,-0.209C0.294,-0.2 0.293,-0.192 0.291,-0.185C0.291,-0.176 0.288,-0.168 0.283,-0.159C0.277,-0.15 0.267,-0.141 0.254,-0.132C0.243,-0.126 0.228,-0.123 0.209,-0.123C0.19,-0.123 0.175,-0.126 0.164,-0.132C0.153,-0.137 0.144,-0.145 0.137,-0.156C0.132,-0.163 0.128,-0.172 0.125,-0.185C0.125,-0.196 0.124,-0.204 0.123,-0.209L0.123,-0.651C0.123,-0.666 0.117,-0.681 0.105,-0.695C0.093,-0.707 0.079,-0.713 0.062,-0.713C0.047,-0.713 0.032,-0.707 0.018,-0.695C0.006,-0.683 0,-0.668 0,-0.651L0,-0.209C0,-0.192 0.001,-0.18 0.002,-0.173C0.003,-0.165 0.006,-0.154 0.011,-0.14C0.018,-0.115 0.03,-0.093 0.047,-0.073C0.063,-0.053 0.084,-0.036 0.111,-0.021C0.124,-0.015 0.139,-0.01 0.156,-0.006C0.173,-0.002 0.19,-0 0.209,-0C0.248,-0 0.281,-0.007 0.308,-0.021C0.334,-0.035 0.355,-0.052 0.371,-0.073C0.387,-0.093 0.399,-0.115 0.407,-0.14C0.41,-0.15 0.412,-0.162 0.414,-0.175C0.416,-0.188 0.417,-0.199 0.417,-0.209C0.417,-0.231 0.414,-0.253 0.407,-0.276C0.401,-0.301 0.389,-0.323 0.371,-0.344C0.357,-0.363 0.336,-0.38 0.309,-0.395C0.282,-0.41 0.248,-0.417 0.209,-0.417Z" style="fill-rule:nonzero;"/>
            </g>
            <g transform="matrix(125,0,0,125,676.964,303.246)">
                <path d="M0.209,-0.417C0.171,-0.417 0.139,-0.41 0.113,-0.397C0.087,-0.384 0.065,-0.366 0.047,-0.344C0.032,-0.323 0.02,-0.301 0.011,-0.276C0.008,-0.265 0.006,-0.254 0.005,-0.245C0.003,-0.235 0.001,-0.223 0,-0.209C0,-0.192 0.001,-0.18 0.002,-0.173C0.003,-0.165 0.006,-0.154 0.011,-0.14C0.018,-0.115 0.03,-0.093 0.047,-0.073C0.063,-0.053 0.084,-0.036 0.111,-0.021C0.124,-0.015 0.139,-0.01 0.156,-0.006C0.173,-0.002 0.19,-0 0.209,-0C0.248,-0 0.281,-0.007 0.308,-0.021C0.334,-0.035 0.355,-0.052 0.371,-0.073C0.387,-0.093 0.399,-0.115 0.407,-0.14C0.41,-0.15 0.412,-0.162 0.414,-0.175C0.416,-0.188 0.417,-0.199 0.417,-0.209C0.417,-0.231 0.414,-0.253 0.407,-0.276C0.401,-0.301 0.389,-0.323 0.371,-0.344C0.357,-0.363 0.336,-0.38 0.309,-0.395C0.282,-0.41 0.248,-0.417 0.209,-0.417ZM0.209,-0.123C0.19,-0.123 0.175,-0.126 0.164,-0.132C0.153,-0.137 0.144,-0.145 0.137,-0.156C0.132,-0.163 0.128,-0.172 0.125,-0.185C0.125,-0.196 0.124,-0.204 0.123,-0.209L0.125,-0.233C0.126,-0.238 0.127,-0.243 0.129,-0.248C0.13,-0.252 0.133,-0.257 0.137,-0.262C0.141,-0.267 0.145,-0.272 0.148,-0.275C0.151,-0.278 0.155,-0.281 0.162,-0.284C0.174,-0.291 0.19,-0.294 0.209,-0.294C0.228,-0.294 0.243,-0.291 0.255,-0.285C0.266,-0.278 0.275,-0.271 0.281,-0.262C0.286,-0.253 0.29,-0.243 0.291,-0.233L0.294,-0.209C0.294,-0.2 0.293,-0.192 0.291,-0.185C0.291,-0.176 0.288,-0.168 0.283,-0.159C0.277,-0.15 0.267,-0.141 0.254,-0.132C0.243,-0.126 0.228,-0.123 0.209,-0.123Z" style="fill-rule:nonzero;"/>
            </g>
            <g transform="matrix(125,0,0,125,734.089,303.246)">
                <path d="M0.209,-0.417C0.171,-0.417 0.139,-0.41 0.113,-0.397C0.087,-0.384 0.065,-0.366 0.047,-0.344C0.032,-0.323 0.02,-0.301 0.011,-0.276C0.008,-0.265 0.006,-0.254 0.005,-0.245C0.003,-0.235 0.001,-0.223 0,-0.209C0,-0.192 0.001,-0.18 0.002,-0.173C0.003,-0.165 0.006,-0.154 0.011,-0.14C0.018,-0.115 0.03,-0.093 0.047,-0.073C0.063,-0.053 0.084,-0.036 0.111,-0.021C0.124,-0.015 0.139,-0.01 0.156,-0.006C0.173,-0.002 0.19,-0 0.209,-0C0.248,-0 0.281,-0.007 0.308,-0.021C0.334,-0.035 0.355,-0.052 0.371,-0.073C0.387,-0.093 0.399,-0.115 0.407,-0.14C0.41,-0.15 0.412,-0.162 0.414,-0.175C0.416,-0.188 0.417,-0.199 0.417,-0.209C0.417,-0.231 0.414,-0.253 0.407,-0.276C0.401,-0.301 0.389,-0.323 0.371,-0.344C0.357,-0.363 0.336,-0.38 0.309,-0.395C0.282,-0.41 0.248,-0.417 0.209,-0.417ZM0.209,-0.123C0.19,-0.123 0.175,-0.126 0.164,-0.132C0.153,-0.137 0.144,-0.145 0.137,-0.156C0.132,-0.163 0.128,-0.172 0.125,-0.185C0.125,-0.196 0.124,-0.204 0.123,-0.209L0.125,-0.233C0.126,-0.238 0.127,-0.243 0.129,-0.248C0.13,-0.252 0.133,-0.257 0.137,-0.262C0.141,-0.267 0.145,-0.272 0.148,-0.275C0.151,-0.278 0.155,-0.281 0.162,-0.284C0.174,-0.291 0.19,-0.294 0.209,-0.294C0.228,-0.294 0.243,-0.291 0.255,-0.285C0.266,-0.278 0.275,-0.271 0.281,-0.262C0.286,-0.253 0.29,-0.243 0.291,-0.233L0.294,-0.209C0.294,-0.2 0.293,-0.192 0.291,-0.185C0.291,-0.176 0.288,-0.168 0.283,-0.159C0.277,-0.15 0.267,-0.141 0.254,-0.132C0.243,-0.126 0.228,-0.123 0.209,-0.123Z" style="fill-rule:nonzero;"/>
            </g>
            <g transform="matrix(125,0,0,125,791.214,303.246)">
                <path d="M0.209,-0.123C0.19,-0.123 0.175,-0.126 0.164,-0.132C0.153,-0.137 0.144,-0.145 0.137,-0.156C0.132,-0.163 0.128,-0.172 0.125,-0.185C0.125,-0.196 0.124,-0.204 0.123,-0.209L0.123,-0.504C0.123,-0.519 0.117,-0.534 0.105,-0.548C0.093,-0.56 0.079,-0.566 0.062,-0.566C0.047,-0.566 0.032,-0.56 0.018,-0.548C0.006,-0.536 0,-0.521 0,-0.504L0,-0.209C0,-0.192 0.001,-0.18 0.002,-0.173C0.003,-0.165 0.006,-0.154 0.011,-0.14C0.018,-0.115 0.03,-0.093 0.047,-0.073C0.063,-0.053 0.084,-0.036 0.111,-0.021C0.124,-0.015 0.139,-0.01 0.156,-0.006C0.173,-0.002 0.19,-0 0.209,-0C0.224,-0 0.238,-0.006 0.251,-0.018C0.264,-0.03 0.27,-0.045 0.27,-0.062C0.27,-0.077 0.264,-0.091 0.252,-0.104C0.24,-0.117 0.226,-0.123 0.209,-0.123ZM0.209,-0.417C0.194,-0.417 0.179,-0.411 0.165,-0.399C0.153,-0.387 0.147,-0.373 0.147,-0.356C0.147,-0.341 0.153,-0.326 0.165,-0.312C0.177,-0.3 0.192,-0.294 0.209,-0.294C0.224,-0.294 0.238,-0.3 0.251,-0.312C0.264,-0.324 0.27,-0.339 0.27,-0.356C0.27,-0.371 0.264,-0.385 0.252,-0.398C0.24,-0.411 0.226,-0.417 0.209,-0.417Z" style="fill-rule:nonzero;"/>
            </g>
            <g transform="matrix(125,0,0,125,829.964,303.246)">
                <path d="M0.062,-0.417C0.047,-0.417 0.032,-0.411 0.018,-0.399C0.006,-0.387 0,-0.373 0,-0.356L0,-0.062C0,-0.047 0.006,-0.032 0.018,-0.018C0.03,-0.006 0.045,-0 0.062,-0C0.077,-0 0.091,-0.006 0.104,-0.018C0.117,-0.03 0.123,-0.045 0.123,-0.062L0.123,-0.356C0.123,-0.371 0.117,-0.385 0.105,-0.398C0.093,-0.411 0.079,-0.417 0.062,-0.417ZM0.062,-0.566C0.047,-0.566 0.032,-0.56 0.018,-0.548C0.006,-0.536 0,-0.521 0,-0.504C0,-0.489 0.006,-0.475 0.018,-0.462C0.03,-0.449 0.045,-0.443 0.062,-0.443C0.077,-0.443 0.091,-0.449 0.104,-0.461C0.117,-0.473 0.123,-0.487 0.123,-0.504C0.123,-0.519 0.117,-0.534 0.105,-0.548C0.093,-0.56 0.079,-0.566 0.062,-0.566Z" style="fill-rule:nonzero;"/>
            </g>
            <g transform="matrix(125,0,0,125,850.339,303.246)">
                <path d="M0.356,-0.417L0.209,-0.417C0.186,-0.417 0.164,-0.414 0.141,-0.408C0.118,-0.401 0.095,-0.389 0.074,-0.371C0.053,-0.356 0.036,-0.335 0.021,-0.306C0.014,-0.294 0.009,-0.28 0.006,-0.263C0.002,-0.246 0,-0.228 0,-0.209C0,-0.171 0.007,-0.138 0.021,-0.111C0.028,-0.1 0.035,-0.088 0.045,-0.077C0.054,-0.066 0.063,-0.056 0.074,-0.047C0.095,-0.032 0.118,-0.02 0.141,-0.011C0.152,-0.008 0.162,-0.006 0.173,-0.005C0.184,-0.003 0.196,-0.001 0.209,-0L0.356,-0C0.371,-0 0.385,-0.006 0.398,-0.018C0.411,-0.03 0.417,-0.045 0.417,-0.062C0.417,-0.077 0.411,-0.091 0.399,-0.104C0.387,-0.117 0.373,-0.123 0.356,-0.123L0.209,-0.123L0.185,-0.125C0.18,-0.126 0.176,-0.127 0.171,-0.129C0.166,-0.13 0.161,-0.133 0.156,-0.137C0.147,-0.143 0.139,-0.151 0.132,-0.162C0.126,-0.173 0.123,-0.189 0.123,-0.209C0.123,-0.227 0.126,-0.242 0.132,-0.254C0.138,-0.266 0.146,-0.275 0.155,-0.281C0.164,-0.287 0.174,-0.29 0.185,-0.291L0.209,-0.294L0.356,-0.294C0.371,-0.294 0.385,-0.3 0.398,-0.312C0.411,-0.324 0.417,-0.339 0.417,-0.356C0.417,-0.371 0.411,-0.385 0.399,-0.398C0.387,-0.411 0.373,-0.417 0.356,-0.417ZM0.356,-0.27L0.209,-0.27C0.194,-0.27 0.179,-0.264 0.165,-0.252C0.153,-0.24 0.147,-0.226 0.147,-0.209C0.147,-0.194 0.153,-0.179 0.165,-0.165C0.177,-0.153 0.192,-0.147 0.209,-0.147L0.356,-0.147C0.371,-0.147 0.385,-0.153 0.398,-0.165C0.411,-0.177 0.417,-0.192 0.417,-0.209C0.417,-0.224 0.411,-0.238 0.399,-0.251C0.387,-0.264 0.373,-0.27 0.356,-0.27Z" style="fill-rule:nonzero;"/>
            </g>
            <g transform="matrix(125,0,0,125,907.464,303.246)">
                <path d="M0.356,-0.417L0.209,-0.417C0.186,-0.417 0.164,-0.414 0.141,-0.408C0.118,-0.401 0.095,-0.389 0.074,-0.371C0.053,-0.356 0.036,-0.335 0.021,-0.306C0.014,-0.294 0.009,-0.28 0.006,-0.263C0.002,-0.246 0,-0.228 0,-0.209C0,-0.194 0.006,-0.179 0.018,-0.165C0.03,-0.153 0.045,-0.147 0.062,-0.147C0.077,-0.147 0.091,-0.153 0.104,-0.165C0.117,-0.177 0.123,-0.192 0.123,-0.209C0.123,-0.227 0.126,-0.242 0.132,-0.254C0.138,-0.266 0.146,-0.275 0.155,-0.281C0.164,-0.287 0.174,-0.29 0.185,-0.291L0.209,-0.294L0.356,-0.294C0.371,-0.294 0.385,-0.3 0.398,-0.312C0.411,-0.324 0.417,-0.339 0.417,-0.356C0.417,-0.371 0.411,-0.385 0.399,-0.398C0.387,-0.411 0.373,-0.417 0.356,-0.417ZM0.27,-0.209C0.27,-0.224 0.264,-0.238 0.252,-0.251C0.24,-0.264 0.226,-0.27 0.209,-0.27C0.194,-0.27 0.179,-0.264 0.165,-0.252C0.153,-0.24 0.147,-0.226 0.147,-0.209C0.147,-0.194 0.153,-0.179 0.165,-0.165C0.177,-0.153 0.192,-0.147 0.209,-0.147C0.224,-0.147 0.238,-0.153 0.251,-0.165C0.264,-0.177 0.27,-0.192 0.27,-0.209ZM0.356,-0.27C0.341,-0.27 0.326,-0.264 0.312,-0.252C0.3,-0.24 0.294,-0.226 0.294,-0.209C0.294,-0.2 0.293,-0.192 0.291,-0.185C0.291,-0.176 0.288,-0.168 0.283,-0.159C0.277,-0.15 0.267,-0.141 0.254,-0.132C0.243,-0.126 0.228,-0.123 0.209,-0.123L0.062,-0.123C0.047,-0.123 0.032,-0.117 0.018,-0.105C0.006,-0.093 0,-0.079 0,-0.062C0,-0.047 0.006,-0.032 0.018,-0.018C0.03,-0.006 0.045,-0 0.062,-0L0.209,-0C0.248,-0 0.281,-0.007 0.308,-0.021C0.334,-0.035 0.355,-0.052 0.371,-0.073C0.387,-0.093 0.399,-0.115 0.407,-0.14C0.41,-0.15 0.412,-0.162 0.414,-0.175C0.416,-0.188 0.417,-0.199 0.417,-0.209C0.417,-0.224 0.411,-0.238 0.399,-0.251C0.387,-0.264 0.373,-0.27 0.356,-0.27Z" style="fill-rule:nonzero;"/>
            </g>
        </g>
    </g>
</svg>
